<?xml version="1.0" encoding="UTF-8" standalone="no"?>
<svg
   version="1.0"
   width="623"
   height="240"
   viewBox="0 0 623 240"
   preserveAspectRatio="xMidYMid"
   id="svg18"
   xmlns="http://www.w3.org/2000/svg"
   xmlns:svg="http://www.w3.org/2000/svg">
  <defs
     id="defs18" />
  <g
     fill="#224e49"
     id="g18">
    <path
       d="m 192.85,236.43 c -7.23,-1.65 -12.43,-4.38 -17.6,-9.32 -3.48,-3.37 -5.62,-6.33 -7.68,-10.75 -2.81,-5.92 -3.37,-8.76 -3.41,-16.62 0,-5.92 0.11,-7.15 0.9,-10.11 3.59,-13.7 13.03,-23.62 25.46,-26.81 4.23,-1.09 12.5,-1.35 16.47,-0.56 3.97,0.82 7.41,2.1 10.52,3.93 2.62,1.57 8.61,6.55 8.61,7.19 0,0.22 -1.8,2.32 -3.97,4.64 l -4.01,4.27 -2.36,-2.13 c -5.24,-4.68 -9.51,-6.44 -15.69,-6.44 -4.75,0 -7.9,0.9 -11.49,3.22 -5.65,3.63 -8.99,8.65 -10.6,16.02 -1.05,4.64 -0.67,11.31 0.9,15.91 1.5,4.42 3.18,7.23 6.07,10.11 4.08,4.04 9.36,6.14 15.31,6.14 6.14,0 10.86,-1.98 15.54,-6.55 1.42,-1.39 2.73,-2.51 2.85,-2.47 0.15,0.07 2.06,1.83 4.23,3.97 l 4.01,3.86 -0.79,1.09 c -1.46,2.06 -6.07,5.92 -9.1,7.64 -1.68,0.97 -4.68,2.25 -6.63,2.88 -3.22,1.09 -4.08,1.2 -9.36,1.31 -4.12,0.11 -6.48,-0.04 -8.2,-0.41 z"
       id="path9" />
    <path
       d="m 486.23,236.43 c -13.14,-2.51 -23.74,-12.32 -27.86,-25.83 -0.94,-3.18 -1.01,-3.78 -1.01,-10.86 0,-7.08 0.07,-7.68 1.01,-10.86 2.1,-7 6.4,-14.08 10.93,-18.08 4.27,-3.74 9.92,-6.78 15.16,-8.05 3.97,-0.97 12.28,-1.24 16.29,-0.45 6.44,1.2 12.21,4.16 17,8.65 l 2.36,2.21 -4.01,4.42 -4.01,4.38 -2.1,-1.91 c -2.58,-2.32 -6.29,-4.53 -9.06,-5.47 -2.88,-0.94 -11.31,-0.97 -14.11,-0.04 -4.9,1.68 -10.45,6.29 -12.95,10.78 -2.77,5.05 -4.08,12.09 -3.26,17.97 1.24,9.17 5.8,16.06 12.8,19.39 1.72,0.82 4.04,1.72 5.17,1.98 2.7,0.64 8.24,0.64 10.86,0 3.22,-0.75 7.86,-3.03 8.09,-3.93 0.07,-0.45 0.11,-3.56 0.07,-6.96 l -0.11,-6.18 -7.38,-0.11 -7.41,-0.07 v -5.05 -5.05 l 1.05,-0.04 c 0.56,-0.04 6.66,-0.04 13.55,-0.04 h 12.54 l 0.11,14.79 0.07,14.79 -1.72,1.54 c -2.66,2.36 -7.23,4.83 -11.72,6.4 -2.21,0.75 -4.27,1.54 -4.53,1.68 -0.94,0.56 -12.8,0.56 -15.84,0 z"
       id="path10" />
    <path
       d="m 41.56,199.82 c 0,-27.56 0.11,-36.17 0.45,-36.5 0.34,-0.34 5.99,-0.45 23.21,-0.45 h 22.76 v 5.8 5.8 l -16.55,0.07 -16.59,0.11 -0.11,9.1 -0.07,9.06 h 14.41 14.41 v 5.62 5.62 H 69.07 54.66 v 10.11 10.11 h 17.41 17.41 v 5.8 5.8 H 65.52 41.56 Z"
       id="path11" />
    <path
       d="m 96.71,235.42 c 0.07,-0.26 5.58,-8.65 12.17,-18.61 l 11.98,-18.08 -6.96,-10.56 C 97.28,163.01 97.58,163.46 98.55,163.2 c 0.49,-0.15 3.82,-0.26 7.45,-0.3 l 6.63,-0.04 3.33,5.35 c 6.85,10.93 12.65,19.73 12.99,19.62 0.37,-0.11 10.45,-15.31 14.49,-21.86 l 1.95,-3.11 h 7.41 c 4.12,0 7.45,0.07 7.45,0.19 0,0.11 -5.2,8.05 -11.61,17.63 -6.36,9.58 -11.61,17.6 -11.61,17.75 0,0.34 7.75,12.39 18.5,28.83 l 5.54,8.42 -7.23,0.11 c -4.01,0.04 -7.41,0.04 -7.68,-0.07 -0.34,-0.15 -14.41,-21.68 -16.47,-25.2 -0.37,-0.67 -0.86,-1.24 -1.09,-1.24 -0.19,0 -1.2,1.31 -2.17,2.92 -0.97,1.57 -4.75,7.53 -8.42,13.18 l -6.63,10.3 -7.45,0.11 c -5.88,0.07 -7.38,0 -7.23,-0.37 z"
       id="path12" />
    <path
       d="m 238.12,199.37 v -36.5 h 6.36 6.36 l 0.07,11.53 c 0.04,6.33 0.04,12.24 -0.04,13.18 -0.04,0.94 0,2.4 0.15,3.26 l 0.22,1.61 h 16.25 16.29 l 0.07,-14.68 0.11,-14.71 6.48,-0.11 6.44,-0.07 v 36.5 36.5 h -6.55 -6.55 v -15.91 -15.91 h -16.06 c -13.97,0 -16.1,0.07 -16.51,0.56 -0.37,0.45 -0.45,3.86 -0.34,15.84 l 0.15,15.24 -6.44,0.11 -6.48,0.07 v -36.5 z"
       id="path13" />
    <path
       d="m 305.88,235.57 c 0,-0.67 28.01,-71.62 28.45,-72.11 0.19,-0.15 3.22,-0.41 6.81,-0.52 l 6.48,-0.19 0.52,1.46 c 0.79,2.32 9.43,24.19 19.06,48.26 4.83,12.17 8.87,22.39 8.99,22.76 0.15,0.6 -0.34,0.64 -6.78,0.64 h -6.93 l -1.35,-3.44 c -0.71,-1.91 -2.13,-5.65 -3.14,-8.35 l -1.8,-4.87 -14.45,-0.11 c -8.46,-0.04 -14.83,0.07 -15.39,0.26 -0.6,0.22 -1.12,0.9 -1.54,1.98 -0.34,0.9 -1.65,4.49 -2.96,7.97 l -2.4,6.36 -6.78,0.11 c -3.74,0.04 -6.81,-0.04 -6.81,-0.22 z m 45.94,-27.93 c -0.11,-0.3 -1.12,-3.03 -2.28,-6.1 -1.12,-3.03 -3.41,-9.21 -5.05,-13.67 -1.68,-4.46 -3.03,-8.31 -3.03,-8.5 0,-0.22 -0.22,-0.41 -0.52,-0.41 -0.26,0 -0.86,1.01 -1.35,2.36 -0.45,1.27 -2.85,7.71 -5.28,14.34 -2.47,6.63 -4.46,12.13 -4.46,12.24 0,0.15 4.98,0.26 11.08,0.26 9.4,0 11.04,-0.07 10.9,-0.52 z"
       id="path14" />
    <path
       d="m 385.26,213.82 c 0,-17.18 0.11,-22.13 0.49,-22.43 0.22,-0.19 1.39,-0.64 2.58,-0.97 5.39,-1.54 9.55,-4.08 15.13,-9.25 1.76,-1.65 3.37,-2.96 3.52,-2.88 0.26,0.11 13.07,18.16 21.49,30.36 1.24,1.8 2.4,3.26 2.55,3.26 0.15,0 0.3,-11.04 0.3,-24.52 v -24.52 h 6.36 6.36 v 36.5 36.5 h -5.77 -5.77 l -4.83,-6.81 c -28.6,-40.32 -27.93,-39.39 -28.68,-39.54 -0.6,-0.11 -0.64,1.57 -0.64,23.1 v 23.25 h -6.55 -6.55 v -22.05 z"
       id="path15" />
    <path
       d="m 535.77,199.37 v -36.5 h 23.21 23.21 v 5.77 5.77 l -16.21,0.15 c -13.07,0.07 -16.36,0.22 -16.85,0.64 -0.56,0.41 -0.64,1.39 -0.64,6.78 0,3.44 0.11,7.3 0.22,8.57 l 0.26,2.28 h 14.56 14.56 l -0.11,5.73 -0.11,5.69 -14.26,0.11 c -10.86,0.07 -14.38,0.19 -14.6,0.56 -0.19,0.22 -0.3,4.72 -0.22,9.88 l 0.11,9.47 17.3,0.07 17.3,0.11 0.11,5.73 0.11,5.69 h -24 -23.96 v -36.5 z"
       id="path16" />
    <path
       d="m 376.08,183.72 c -4.08,-1.05 -6.89,-3.22 -8.42,-6.55 -1.16,-2.43 -1.42,-7.6 -0.56,-10.93 3,-11.53 14.38,-21.68 38.38,-34.18 5.35,-2.81 4.42,-1.42 8.09,-11.76 1.31,-3.78 1.83,-5.73 1.54,-5.73 -0.26,0 -1.8,1.54 -3.37,3.37 -3.56,4.12 -5.99,6.1 -9.43,7.68 -6.51,3 -12.09,2.62 -16.21,-1.09 -2.17,-1.98 -3.18,-4.53 -3.37,-8.72 -0.11,-2.62 -0.3,-3.48 -0.67,-3.48 -0.3,0 -0.52,0.15 -0.52,0.34 0,0.19 -1.31,2.17 -2.96,4.38 -5.5,7.6 -11.19,12.5 -16.77,14.41 -3.74,1.31 -8.84,1.27 -11.76,-0.07 -5.92,-2.77 -8.27,-9.02 -6.93,-18.42 0.34,-2.36 1.01,-5.69 1.5,-7.34 1.01,-3.48 0.86,-3.63 -1.95,-1.95 -1.01,0.6 -3.44,1.68 -5.35,2.47 -1.95,0.75 -3.89,1.5 -4.34,1.68 -0.79,0.34 -0.86,0.6 -0.86,3.11 0,5.77 -2.06,10.63 -6.33,14.9 -5.95,5.99 -15.01,8.65 -23.29,6.93 -4.57,-0.97 -7.49,-3.03 -9.17,-6.44 -0.82,-1.72 -0.97,-2.4 -0.82,-4.53 0.07,-1.42 0.45,-3.22 0.86,-4.04 1.01,-2.1 4.46,-5.39 7.15,-6.81 2.73,-1.46 9.17,-3.67 13.37,-4.57 3.03,-0.67 3.07,-0.67 2.96,-1.76 -0.07,-0.6 -1.61,-5.54 -3.44,-11.01 -1.87,-5.47 -3.37,-10.22 -3.37,-10.6 0,-0.37 -0.26,-0.64 -0.64,-0.6 -0.49,0 -1.39,1.42 -2.92,4.53 -7.45,14.98 -16.85,29.09 -24.97,37.51 -3.48,3.59 -3.97,3.97 -5.2,3.97 -1.91,0 -3.14,-1.42 -3,-3.48 0,-0.37 1.87,-2.58 4.12,-4.94 4.53,-4.75 9.51,-11.12 13.22,-16.85 6.7,-10.37 14.45,-24.67 17.15,-31.67 3.33,-8.65 7.56,-12.69 13.4,-12.69 3.71,0 5.28,1.2 5.32,4.08 0,1.98 -0.9,3.56 -3,5.24 -2.4,1.95 -3,3.14 -3,6.29 0,3.41 0.86,5.88 5.05,14.41 1.72,3.52 3.71,7.86 4.34,9.73 0.67,1.83 1.31,3.41 1.46,3.48 0.9,0.56 8.87,-3.03 12.24,-5.54 4.01,-3 4.57,-3.93 9.1,-16.17 3.44,-9.32 7.86,-20.78 10.26,-26.77 0.94,-2.36 1.61,-4.38 1.42,-4.49 -0.3,-0.26 -13.4,-3 -19.54,-4.12 -9.58,-1.68 -19.06,-1.91 -25.08,-0.56 -5.84,1.31 -11.23,4.64 -13.52,8.35 -1.31,2.06 -3.63,2.06 -4.68,0 -1.24,-2.4 0.34,-6.29 3.74,-9.14 2.32,-1.95 5.73,-4.01 7.56,-4.53 0.79,-0.22 2.4,-0.71 3.52,-1.05 3.48,-1.01 10.97,-1.76 15.35,-1.5 7.9,0.45 13.48,1.35 26.92,4.34 4.61,1.05 8.5,1.76 8.65,1.57 0.15,-0.15 1.24,-2.81 2.43,-5.92 2.51,-6.55 4.27,-10.18 5.35,-11.16 1.35,-1.24 3.48,-1.72 7.38,-1.76 4.04,0 5.43,0.49 5.43,1.91 0,0.41 -0.79,2.62 -1.72,4.94 -3.33,8.05 -5.77,14.26 -5.62,14.38 0.41,0.41 9.21,1.31 14.83,1.5 16.89,0.56 28.45,-3.18 33.32,-10.75 1.54,-2.36 3.07,-2.85 4.38,-1.35 2.92,3.41 -1.65,10.78 -8.91,14.38 -4.75,2.36 -11.79,4.16 -18.12,4.64 -5.69,0.45 -15.16,0.04 -21.9,-1.01 -1.95,-0.3 -4.16,-0.56 -4.9,-0.56 h -1.39 l -3.37,8.54 c -10.48,26.28 -17.37,46.65 -18.42,54.4 -0.82,5.92 0.71,8.95 4.46,8.95 5.2,0 12.17,-6.7 20.4,-19.58 4.04,-6.36 7.08,-12.58 11.64,-23.85 2.21,-5.47 4.34,-10.37 4.75,-10.93 0.97,-1.39 2.7,-1.8 7.79,-1.8 4.57,0 5.24,0.22 5.24,1.68 0,0.41 -2.06,6.07 -4.61,12.54 -8.72,22.24 -10.15,26.69 -10.18,31.71 0,3.63 0.71,4.94 2.96,5.47 5.2,1.24 12.36,-6.14 21.15,-21.83 3.18,-5.69 5.65,-11.19 9.55,-21.19 1.61,-4.12 2.85,-6.7 3.44,-7.3 0.9,-0.82 1.31,-0.9 5.77,-1.01 5.32,-0.15 6.36,0.11 6.36,1.65 0,0.56 -1.42,4.98 -3.14,9.85 -4.98,13.93 -14.04,38.97 -14.64,40.58 -0.49,1.16 0.45,0.67 4.19,-2.13 7.3,-5.54 14.79,-13.37 19.17,-20.07 2.66,-4.01 2.55,-3.71 5.28,-13.85 3.71,-13.59 7.79,-25.05 13.7,-38.49 9.32,-21.08 18.76,-33.81 28.38,-38.3 3.07,-1.46 7.3,-1.87 10.22,-1.05 2.43,0.67 4.75,3.03 5.5,5.62 0.86,2.81 0.79,8.39 -0.15,12.24 -4.04,16.81 -20.74,41.52 -41.6,61.48 l -4.12,3.93 -1.8,7.86 c -2.43,10.56 -3.03,14.23 -3.03,18.68 0,2.92 0.19,4.16 0.71,5.35 2.06,4.49 7.68,3.41 13.7,-2.66 5.65,-5.69 10.07,-12.36 16.17,-24.37 4.42,-8.8 7.04,-12.88 10.97,-17.11 6.93,-7.53 14.71,-11.49 22.84,-11.64 3.63,-0.07 4.12,0 6.29,1.01 4.53,2.1 6.74,5.99 6.33,11.23 -0.37,5.35 -2.4,9.29 -7.19,14.11 -6.4,6.44 -15.2,11.04 -23.92,12.54 -1.87,0.34 -3.67,0.82 -3.97,1.12 -0.94,0.94 -0.75,8.69 0.3,11.76 1.54,4.57 4.23,6.7 8.72,7.04 7.41,0.52 14.64,-3.56 32.54,-18.5 9.25,-7.71 13.82,-11.19 20.11,-15.35 15.13,-10.03 28.75,-13.67 39.8,-10.6 10.37,2.88 16.47,11.38 15.05,21.08 -0.52,3.67 -1.95,6.74 -3.48,7.53 -1.16,0.6 -2.66,0.45 -3.33,-0.37 -0.19,-0.26 -0.41,-2.55 -0.49,-5.09 -0.07,-4.34 -0.15,-4.79 -1.27,-7.15 -1.98,-4.19 -5.62,-7.11 -10.41,-8.39 -2.21,-0.6 -8.05,-0.67 -11.34,-0.15 -3.67,0.6 -9.92,2.85 -14.79,5.32 -7.53,3.82 -17.75,11.08 -29.88,21.23 -5.62,4.72 -12.36,9.85 -15.72,11.94 -3.74,2.36 -9.92,5.17 -13.44,6.14 -4.31,1.16 -9.92,1.16 -13.67,0 -7.9,-2.4 -12.92,-9.14 -12.92,-17.37 0,-3.11 -0.49,-3.26 -2.06,-0.75 -9.81,15.5 -21.98,22.35 -31.52,17.67 -5.47,-2.7 -7.49,-7.75 -7.15,-17.6 0.11,-2.88 0.11,-5.24 -0.04,-5.24 -0.11,0 -1.87,1.8 -3.93,3.97 -5.02,5.35 -11.61,10.82 -17.48,14.49 l -4.9,3.07 -1.39,4.12 c -4.83,14.04 -11.19,26.96 -17.18,35.01 -5.43,7.26 -11.53,12.09 -18.05,14.26 -2.96,0.97 -8.05,1.27 -10.67,0.6 z m 7.3,-8.42 c 5.88,-2.77 13.48,-13.97 20.59,-30.29 3.41,-7.79 3.52,-7.75 -6.44,-1.68 -11.53,7 -18.61,13.44 -22.05,20.11 -4.94,9.55 -0.67,15.99 7.9,11.87 z m -72.82,-49.27 c 3.71,-1.76 6.18,-5.54 6.93,-10.52 0.6,-4.23 0.67,-4.08 -1.54,-3.78 -4.04,0.52 -10.26,2.92 -12.99,4.98 -2.4,1.8 -3.37,5.24 -2.1,7.64 1.27,2.51 6.18,3.37 9.7,1.68 z M 511.43,97.46 c 3.29,-1.2 7.45,-3.52 10.07,-5.54 7.15,-5.47 11.68,-13.67 10.15,-18.31 -0.64,-1.95 -1.8,-2.58 -4.27,-2.4 -5.8,0.49 -12.54,7.19 -17.45,17.33 -1.61,3.33 -3.74,9.06 -3.74,10 0,0.49 2.36,0 5.24,-1.09 z m -32.5,-28.57 c 3.89,-4.46 10.78,-13.48 14.04,-18.35 8.01,-11.98 13.78,-24.9 14.23,-31.86 0.34,-4.79 -0.37,-6.18 -3.03,-5.73 -2.28,0.37 -3.22,0.97 -5.77,3.71 -6.18,6.59 -15.99,27.74 -24.26,52.42 -1.31,3.89 -2.4,7.26 -2.4,7.49 0.04,0.41 1.39,-1.05 7.19,-7.68 z"
       id="path17" />
    <path
       d="m 92.51,131.94 c -6.89,-1.83 -10.22,-8.31 -9.1,-17.67 1.01,-8.57 5.17,-21.12 17.9,-54.06 0.79,-2.02 1.35,-3.74 1.24,-3.82 C 102.4,56.24 97.31,55.34 76.87,51.86 64.22,49.69 60.1,49.28 51.3,49.28 39.47,49.24 34.45,50.07 26.44,53.17 c -4.79,1.87 -9.85,5.13 -12.36,7.9 -6.74,7.49 -7.45,17.3 -1.87,24.64 1.5,1.95 1.57,2.77 0.34,3.97 C 10.9,91.36 8.13,90.54 5.36,87.51 1.17,82.98 -0.22,76.17 1.5,68.9 4.98,54.49 18.5,45.01 38.94,42.65 c 4.98,-0.56 19.96,-0.22 25.83,0.56 6.25,0.86 14.94,2.32 22.65,3.82 8.09,1.57 17.82,3.22 17.93,3.07 0.07,-0.07 1.57,-3.74 3.41,-8.16 4.12,-10.03 5.17,-12.17 6.44,-12.99 1.39,-0.94 11.16,-1.01 11.76,-0.11 0.64,1.01 0.15,2.62 -3.97,12.65 -2.21,5.39 -3.93,9.96 -3.78,10.11 0.15,0.15 3.44,0.26 7.26,0.26 3.86,0 7.23,0.15 7.49,0.3 0.6,0.41 0.56,2.7 -0.07,3.97 -1.01,1.87 -1.98,2.1 -9.85,2.1 -4.31,0 -7.34,0.15 -7.56,0.37 -0.64,0.64 -11.83,29.61 -15.57,40.29 -5.8,16.62 -5.69,24.67 0.45,24.67 5.35,0 14.86,-10 24.3,-25.53 2.81,-4.57 4.08,-7.68 6.7,-16.02 16.51,-52.83 31.41,-76.71 47.92,-76.86 7.79,-0.04 11.42,6.33 9.36,16.44 -0.6,2.88 -2.51,8.16 -3.93,11.08 -6.03,11.94 -19.02,26.92 -33.77,38.9 l -3.63,2.96 -3,9.25 c -1.65,5.13 -3.11,9.7 -3.26,10.22 -0.11,0.52 1.46,-1.61 3.52,-4.72 4.64,-6.96 7.34,-10.37 11.27,-14.11 5.28,-5.05 10,-7.68 15.28,-8.5 6.1,-0.97 10.78,1.12 12.88,5.8 0.71,1.5 0.86,2.51 0.82,5.24 -0.04,5.65 -1.87,11.68 -7.71,25.31 -3.71,8.61 -5.2,13.33 -5.24,16.47 -0.07,3.14 0.6,4.08 2.92,4.08 2.4,0 5.13,-1.61 8.54,-5.05 5.32,-5.28 10.15,-12.69 16.36,-24.93 4.64,-9.14 7.45,-13.37 11.79,-17.75 7.26,-7.38 14.38,-10.82 22.28,-10.86 3.56,0 4.16,0.11 6.22,1.05 4.46,2.06 6.33,5.17 6.29,10.37 -0.04,2.51 -0.26,3.74 -1.01,5.77 -3.97,10.26 -16.81,19.47 -30.4,21.79 -1.83,0.34 -3.59,0.79 -3.86,1.05 -0.26,0.26 -0.56,1.83 -0.71,3.71 -0.52,7.41 1.98,12.65 6.89,14.49 5.09,1.91 11.91,0 18.83,-5.2 5.47,-4.12 13.59,-13.52 17.56,-20.25 0.9,-1.54 1.98,-3.18 2.4,-3.63 1.54,-1.72 4.12,-0.6 4.12,1.76 0,3.52 -7.79,14.71 -16.02,23.03 -10.9,11.01 -22.84,15.54 -33.36,12.77 -7,-1.83 -12.28,-7.49 -13.82,-14.71 -0.3,-1.39 -0.56,-3.11 -0.56,-3.74 0,-0.67 -0.15,-1.24 -0.34,-1.24 -0.22,0 -1.61,1.8 -3.11,4.04 -1.65,2.43 -4.27,5.58 -6.66,7.97 -5.5,5.58 -10.03,8.09 -15.2,8.46 -8.91,0.67 -14,-5.39 -12.54,-14.98 0.6,-3.93 3.11,-11.49 5.84,-17.48 3.22,-7.15 6.1,-14.3 6.74,-16.7 0.3,-1.2 0.56,-3.26 0.56,-4.57 0,-2.02 -0.11,-2.47 -0.97,-3.33 -0.82,-0.82 -1.16,-0.94 -2.62,-0.71 -5.65,0.75 -13.52,8.91 -21.6,22.39 -5.35,8.95 -8.84,16.1 -13.37,27.56 -1.2,3 -2.25,5.17 -2.73,5.5 -0.6,0.45 -2.02,0.56 -5.95,0.56 -4.61,0 -5.24,-0.07 -5.88,-0.71 -0.64,-0.64 -0.67,-0.94 -0.37,-2.17 0.94,-3.44 3.67,-13.1 3.89,-13.67 0.19,-0.45 0.07,-0.67 -0.26,-0.67 -0.3,0 -1.57,1.31 -2.85,2.96 C 110.1,129.1 101,134.27 92.54,131.99 Z M 218.12,97.72 c 9.7,-3.33 19.02,-11.76 20.93,-18.87 0.9,-3.29 0.6,-5.32 -0.97,-6.74 -1.05,-0.94 -1.42,-1.05 -3.14,-0.9 -5.92,0.49 -12.58,7.11 -17.97,17.9 -0.97,1.95 -2.28,4.94 -2.85,6.66 l -1.05,3.14 1.54,-0.26 c 0.86,-0.15 2.43,-0.56 3.52,-0.94 z M 158.93,57.58 c 13.89,-14.19 21.34,-25.61 23.92,-36.62 1.46,-6.18 -0.04,-9.32 -3.93,-8.16 -6.07,1.83 -13.82,15.57 -23.51,41.67 -1.68,4.53 -3.22,8.65 -3.44,9.14 -0.34,0.82 -0.26,0.79 1.05,-0.26 0.79,-0.64 3.44,-3.22 5.92,-5.77 z"
       id="path18" />
  </g>
</svg>
